# xmcd
#
# Track frame offsets: 
#        150
#        22660
#        54907
#        68813
#        89264
#        116154
#        133645
#        160946
#        161834
#        179860
#        203411
#        232495
#
# Disc length: 3204 seconds
#
# Revision: 0
# Processed by: cddbd v1.5.2PL0 Copyright (c) Steve Scherf et al.
# Submitted via: ExactAudioCopy v0.95a5
#
DISCID=a40c820c
DTITLE=TISHAMINGO - Wear n' Tear
DYEAR=2005
DGENRE=Southern Rock
TTITLE0=Wastin'Time
TTITLE1=Hillbilly Wine
TTITLE2=Poison Whiskey
TTITLE3=Magic
TTITLE4=Rome
TTITLE5=Billy
TTITLE6=Smoked Mullet
TTITLE7=Willin'To Die
TTITLE8=Legend Of George Nelson
TTITLE9=Worn Out Soles
TTITLE10=Ain't Got Time
TTITLE11=Reprise
EXTD=
EXTT0=
EXTT1=
EXTT2=
EXTT3=
EXTT4=
EXTT5=
EXTT6=
EXTT7=
EXTT8=
EXTT9=
EXTT10=
EXTT11=
PLAYORDER=
